<?xml version="1.0" encoding="UTF-8" standalone="no"?>
<!-- Generator: Adobe Illustrator 19.0.0, SVG Export Plug-In . SVG Version: 6.00 Build 0)  -->

<svg
   xmlns:dc="http://purl.org/dc/elements/1.1/"
   xmlns:cc="http://creativecommons.org/ns#"
   xmlns:rdf="http://www.w3.org/1999/02/22-rdf-syntax-ns#"
   xmlns:svg="http://www.w3.org/2000/svg"
   xmlns="http://www.w3.org/2000/svg"
   xmlns:sodipodi="http://sodipodi.sourceforge.net/DTD/sodipodi-0.dtd"
   xmlns:inkscape="http://www.inkscape.org/namespaces/inkscape"
   version="1.1"
   id="Capa_1"
   x="0px"
   y="0px"
   viewBox="0 0 345.42 345.42"
   style="enable-background:new 0 0 345.42 345.42;"
   xml:space="preserve"
   sodipodi:docname="arrow.svg"
   inkscape:version="0.92.3 (2405546, 2018-03-11)"><metadata
   id="metadata51"><rdf:RDF><cc:Work
       rdf:about=""><dc:format>image/svg+xml</dc:format><dc:type
         rdf:resource="http://purl.org/dc/dcmitype/StillImage" /></cc:Work></rdf:RDF></metadata><defs
   id="defs49" /><sodipodi:namedview
   pagecolor="#ffffff"
   bordercolor="#666666"
   borderopacity="1"
   objecttolerance="10"
   gridtolerance="10"
   guidetolerance="10"
   inkscape:pageopacity="0"
   inkscape:pageshadow="2"
   inkscape:window-width="1920"
   inkscape:window-height="1017"
   id="namedview47"
   showgrid="false"
   inkscape:zoom="0.68322619"
   inkscape:cx="172.71001"
   inkscape:cy="172.71001"
   inkscape:window-x="-8"
   inkscape:window-y="-8"
   inkscape:window-maximized="1"
   inkscape:current-layer="Capa_1" />
<g
   id="g14"
   style="fill:#55a462;fill-opacity:1">
	<g
   id="g12"
   style="fill:#55a462;fill-opacity:1">
		<g
   id="g10"
   style="fill:#55a462;fill-opacity:1">
			<path
   d="M342.807,165.855c-0.192-0.21-0.394-0.411-0.603-0.603l-97.175-98.743c-3.329-3.211-8.205-4.227-12.539-2.612     c-4.212,1.653-7.207,5.446-7.837,9.927v47.02H103.967c-5.482-0.008-9.933,4.43-9.94,9.913c0,0.179,0.004,0.358,0.014,0.536     v83.592c-0.289,5.475,3.916,10.147,9.39,10.435c0.179,0.009,0.357,0.014,0.536,0.014h120.686v47.02     c0.63,4.48,3.625,8.274,7.837,9.927h4.702c2.915-0.013,5.717-1.134,7.837-3.135l97.175-99.265     C346.244,176.174,346.514,169.894,342.807,165.855z M245.551,246.753v-31.869c0-5.747-2.09-10.449-7.837-10.449H114.939v-62.694     h122.776c5.747,0,7.837-4.702,7.837-10.449V99.423l72.098,73.665L245.551,246.753z"
   id="path2"
   style="fill:#55a462;fill-opacity:1" />
			<path
   d="M73.143,120.843c-5.771,0-10.449,4.678-10.449,10.449v83.592c0,5.771,4.678,10.449,10.449,10.449     s10.449-4.678,10.449-10.449v-83.592C83.592,125.521,78.914,120.843,73.143,120.843z"
   id="path4"
   style="fill:#55a462;fill-opacity:1" />
			<path
   d="M41.796,120.843c-5.771,0-10.449,4.678-10.449,10.449v83.592c0,5.771,4.678,10.449,10.449,10.449     s10.449-4.678,10.449-10.449v-83.592C52.245,125.521,47.567,120.843,41.796,120.843z"
   id="path6"
   style="fill:#55a462;fill-opacity:1" />
			<path
   d="M10.449,120.843C4.678,120.843,0,125.521,0,131.292v83.592c0,5.771,4.678,10.449,10.449,10.449     s10.449-4.678,10.449-10.449v-83.592C20.898,125.521,16.22,120.843,10.449,120.843z"
   id="path8"
   style="fill:#55a462;fill-opacity:1" />
		</g>
	</g>
</g>
<g
   id="g16">
</g>
<g
   id="g18">
</g>
<g
   id="g20">
</g>
<g
   id="g22">
</g>
<g
   id="g24">
</g>
<g
   id="g26">
</g>
<g
   id="g28">
</g>
<g
   id="g30">
</g>
<g
   id="g32">
</g>
<g
   id="g34">
</g>
<g
   id="g36">
</g>
<g
   id="g38">
</g>
<g
   id="g40">
</g>
<g
   id="g42">
</g>
<g
   id="g44">
</g>
</svg>