<?xml version="1.0" encoding="UTF-8" standalone="no"?>
<!-- Generator: Adobe Illustrator 19.0.0, SVG Export Plug-In . SVG Version: 6.00 Build 0)  -->

<svg
   xmlns:dc="http://purl.org/dc/elements/1.1/"
   xmlns:cc="http://creativecommons.org/ns#"
   xmlns:rdf="http://www.w3.org/1999/02/22-rdf-syntax-ns#"
   xmlns:svg="http://www.w3.org/2000/svg"
   xmlns="http://www.w3.org/2000/svg"
   xmlns:sodipodi="http://sodipodi.sourceforge.net/DTD/sodipodi-0.dtd"
   xmlns:inkscape="http://www.inkscape.org/namespaces/inkscape"
   version="1.1"
   id="Layer_1"
   x="0px"
   y="0px"
   viewBox="0 0 480 480"
   style="enable-background:new 0 0 480 480;"
   xml:space="preserve"
   sodipodi:docname="calendar.svg"
   inkscape:version="0.92.3 (2405546, 2018-03-11)"><metadata
   id="metadata115"><rdf:RDF><cc:Work
       rdf:about=""><dc:format>image/svg+xml</dc:format><dc:type
         rdf:resource="http://purl.org/dc/dcmitype/StillImage" /></cc:Work></rdf:RDF></metadata><defs
   id="defs113" /><sodipodi:namedview
   pagecolor="#ffffff"
   bordercolor="#666666"
   borderopacity="1"
   objecttolerance="10"
   gridtolerance="10"
   guidetolerance="10"
   inkscape:pageopacity="0"
   inkscape:pageshadow="2"
   inkscape:window-width="1920"
   inkscape:window-height="1017"
   id="namedview111"
   showgrid="false"
   inkscape:zoom="0.49166667"
   inkscape:cx="240"
   inkscape:cy="240"
   inkscape:window-x="-8"
   inkscape:window-y="-8"
   inkscape:window-maximized="1"
   inkscape:current-layer="Layer_1" />
<g
   id="g6"
   style="fill:#55a462;fill-opacity:1">
	<g
   id="g4"
   style="fill:#55a462;fill-opacity:1">
		<path
   d="M440,56h-40V32c0-17.648-14.352-32-32-32s-32,14.352-32,32v24H144V32c0-17.648-14.352-32-32-32S80,14.352,80,32v24H40    C17.944,56,0,73.944,0,96v72v272c0,22.056,17.944,40,40,40h400c22.056,0,40-17.944,40-40V168V96C480,73.944,462.056,56,440,56z     M352,32c0-8.824,7.176-16,16-16c8.824,0,16,7.176,16,16v56c0,8.824-7.176,16-16,16c-8.824,0-16-7.176-16-16V32z M96,32    c0-8.824,7.176-16,16-16c8.824,0,16,7.176,16,16v56c0,8.824-7.176,16-16,16c-8.824,0-16-7.176-16-16V32z M464,440    c0,13.232-10.768,24-24,24H40c-13.232,0-24-10.768-24-24V176h448V440z M464,160H16V96c0-13.232,10.768-24,24-24h40v16    c0,17.648,14.352,32,32,32s32-14.352,32-32V72h192v16c0,17.648,14.352,32,32,32s32-14.352,32-32V72h40c13.232,0,24,10.768,24,24    V160z"
   id="path2"
   style="fill:#55a462;fill-opacity:1" />
	</g>
</g>
<g
   id="g12"
   style="fill:#55a462;fill-opacity:1">
	<g
   id="g10"
   style="fill:#55a462;fill-opacity:1">
		<path
   d="M240,208c-61.76,0-112,50.24-112,112s50.24,112,112,112s112-50.24,112-112S301.76,208,240,208z M248,224.408    c31.52,2.616,58.688,20.52,74.2,46.264l-42.104,24.056L248,275.472V224.408z M270.624,307.704L257.968,352H222.04l-12.656-44.296    L240,289.328L270.624,307.704z M232,224.408v51.064l-32.096,19.256L157.8,270.672C173.312,244.928,200.48,227.024,232,224.408z     M144,320c0-12.344,2.424-24.112,6.688-34.968l42.512,24.296l13.816,48.344l-32.408,32.408C155.824,372.544,144,347.656,144,320z     M240,416c-19.496,0-37.624-5.88-52.784-15.904L219.312,368h41.376l32.096,32.096C277.624,410.12,259.496,416,240,416z     M305.392,390.08l-32.408-32.408l13.816-48.344l42.512-24.296C333.576,295.888,336,307.656,336,320    C336,347.656,324.176,372.544,305.392,390.08z"
   id="path8"
   style="fill:#55a462;fill-opacity:1" />
	</g>
</g>
<g
   id="g18"
   style="fill:#55a462;fill-opacity:1">
	<g
   id="g16"
   style="fill:#55a462;fill-opacity:1">
		<rect
   x="232"
   y="128"
   width="16"
   height="16"
   id="rect14"
   style="fill:#55a462;fill-opacity:1" />
	</g>
</g>
<g
   id="g24"
   style="fill:#55a462;fill-opacity:1">
	<g
   id="g22"
   style="fill:#55a462;fill-opacity:1">
		<rect
   x="264"
   y="128"
   width="16"
   height="16"
   id="rect20"
   style="fill:#55a462;fill-opacity:1" />
	</g>
</g>
<g
   id="g30"
   style="fill:#55a462;fill-opacity:1">
	<g
   id="g28"
   style="fill:#55a462;fill-opacity:1">
		<rect
   x="200"
   y="128"
   width="16"
   height="16"
   id="rect26"
   style="fill:#55a462;fill-opacity:1" />
	</g>
</g>
<g
   id="g36"
   style="fill:#55a462;fill-opacity:1">
	<g
   id="g34"
   style="fill:#55a462;fill-opacity:1">
		<rect
   x="416"
   y="344"
   width="16"
   height="16"
   id="rect32"
   style="fill:#55a462;fill-opacity:1" />
	</g>
</g>
<g
   id="g42"
   style="fill:#55a462;fill-opacity:1">
	<g
   id="g40"
   style="fill:#55a462;fill-opacity:1">
		<rect
   x="416"
   y="312"
   width="16"
   height="16"
   id="rect38"
   style="fill:#55a462;fill-opacity:1" />
	</g>
</g>
<g
   id="g48"
   style="fill:#55a462;fill-opacity:1">
	<g
   id="g46"
   style="fill:#55a462;fill-opacity:1">
		<rect
   x="416"
   y="280"
   width="16"
   height="16"
   id="rect44"
   style="fill:#55a462;fill-opacity:1" />
	</g>
</g>
<g
   id="g54"
   style="fill:#55a462;fill-opacity:1">
	<g
   id="g52"
   style="fill:#55a462;fill-opacity:1">
		<rect
   x="384"
   y="312"
   width="16"
   height="16"
   id="rect50"
   style="fill:#55a462;fill-opacity:1" />
	</g>
</g>
<g
   id="g60"
   style="fill:#55a462;fill-opacity:1">
	<g
   id="g58"
   style="fill:#55a462;fill-opacity:1">
		<rect
   x="48"
   y="280"
   width="16"
   height="16"
   id="rect56"
   style="fill:#55a462;fill-opacity:1" />
	</g>
</g>
<g
   id="g66"
   style="fill:#55a462;fill-opacity:1">
	<g
   id="g64"
   style="fill:#55a462;fill-opacity:1">
		<rect
   x="48"
   y="312"
   width="16"
   height="16"
   id="rect62"
   style="fill:#55a462;fill-opacity:1" />
	</g>
</g>
<g
   id="g72"
   style="fill:#55a462;fill-opacity:1">
	<g
   id="g70"
   style="fill:#55a462;fill-opacity:1">
		<rect
   x="48"
   y="344"
   width="16"
   height="16"
   id="rect68"
   style="fill:#55a462;fill-opacity:1" />
	</g>
</g>
<g
   id="g78"
   style="fill:#55a462;fill-opacity:1">
	<g
   id="g76"
   style="fill:#55a462;fill-opacity:1">
		<rect
   x="80"
   y="312"
   width="16"
   height="16"
   id="rect74"
   style="fill:#55a462;fill-opacity:1" />
	</g>
</g>
<g
   id="g80">
</g>
<g
   id="g82">
</g>
<g
   id="g84">
</g>
<g
   id="g86">
</g>
<g
   id="g88">
</g>
<g
   id="g90">
</g>
<g
   id="g92">
</g>
<g
   id="g94">
</g>
<g
   id="g96">
</g>
<g
   id="g98">
</g>
<g
   id="g100">
</g>
<g
   id="g102">
</g>
<g
   id="g104">
</g>
<g
   id="g106">
</g>
<g
   id="g108">
</g>
</svg>