<?xml version="1.0"?>
<svg xmlns="http://www.w3.org/2000/svg" height="512px" viewBox="1 -55 511.99951 511" width="512px"><path d="m466.835938 199.515625c-1.601563-1.597656-3.769532-2.5-6.035157-2.5h-23.140625c-.519531-.347656-1.09375-.578125-1.621094-.902344 18.488282-14.609375 21.632813-41.441406 7.023438-59.929687-14.609375-18.488282-41.441406-21.632813-59.929688-7.023438-18.488281 14.609375-21.632812 41.441406-7.023437 59.929688 2.058594 2.605468 4.414063 4.960937 7.023437 7.023437-.53125.324219-1.101562.554688-1.621093.902344h-23.109375c-2.265625 0-4.433594.898437-6.035156 2.5l-40.164063 40.167969h-112.402344l-40.167969-40.167969c-1.597656-1.597656-3.769531-2.5-6.03125-2.5h-23.144531c-.519531-.347656-1.089843-.578125-1.621093-.902344 18.488281-14.609375 21.632812-41.441406 7.023437-59.929687-14.609375-18.488282-41.441406-21.632813-59.929687-7.023438-18.488282 14.609375-21.632813 41.441406-7.023438 59.929688 2.058594 2.605468 4.417969 4.960937 7.023438 7.023437-.527344.324219-1.101563.554688-1.621094.902344h-23.109375c-2.261719 0-4.433594.902344-6.03125 2.5l-42.667969 42.667969c-3.332031 3.332031-3.332031 8.734375 0 12.066406l25.597656 25.601562c3.335938 3.328126 8.734375 3.328126 12.066406 0l11.035157-11.035156v64.734375c.027343 1.378907.398437 2.726563 1.074219 3.925781l-49.773438 49.773438c-3.332031 3.335938-3.332031 8.738281 0 12.070312 1.601562 1.597657 3.769531 2.496094 6.03125 2.496094h494.9375c4.710938 0 8.53125-3.820312 8.53125-8.535156 0-2.261719-.898438-4.429688-2.5-6.03125l-49.773438-49.773438c.675782-1.199218 1.046876-2.546874 1.074219-3.925781v-64.734375l11.035157 11.035156c3.332031 3.328126 8.730468 3.328126 12.0625 0l25.601562-25.601562c3.332031-3.332031 3.332031-8.734375 0-12.066406zm-57.234376-62.234375c14.136719 0 25.601563 11.464844 25.601563 25.601562 0 14.140626-11.464844 25.601563-25.601563 25.601563-14.136718 0-25.601562-11.460937-25.601562-25.601563 0-14.136718 11.464844-25.601562 25.601562-25.601562zm-307.203124 0c14.140624 0 25.601562 11.464844 25.601562 25.601562 0 14.140626-11.460938 25.601563-25.601562 25.601563-14.136719 0-25.597657-11.460937-25.597657-25.601563 0-14.136718 11.460938-25.601562 25.597657-25.601562zm-68.265626 124.46875-13.535156-13.53125 34.132813-34.136719h22.300781c1.84375 0 3.640625-.597656 5.117188-1.703125 12.035156-8.960937 28.519531-8.960937 40.550781 0 1.550781 1.101563 3.402343 1.699219 5.300781 1.703125h22.066406l34.132813 34.136719-13.53125 13.53125-19.566407-19.566406c-3.335937-3.332032-8.738281-3.332032-12.070312 0-1.597656 1.601562-2.496094 3.769531-2.496094 6.03125v25.601562h-68.269531v-25.601562c0-4.710938-3.820313-8.53125-8.535156-8.53125-2.261719.003906-4.429688.902344-6.03125 2.5zm34.132813 63.265625v-34.132813h68.265625v34.132813zm109.808594 59.734375 22.757812-34.132812h110.335938l22.757812 34.132812zm176.359375 0-31.574219-47.402344c-1.585937-2.378906-4.261719-3.804687-7.125-3.796875h-119.46875c-2.851563 0-5.515625 1.425781-7.097656 3.796875l-31.601563 47.402344h-128.433594l42.664063-42.664062h73.269531c4.710938 0 8.53125-3.824219 8.53125-8.535157v-64.734375l11.035156 11.035156c3.332032 3.328126 8.734376 3.328126 12.066407 0l23.097656-23.101562h112.402344l23.101562 23.101562c3.332031 3.328126 8.734375 3.328126 12.066407 0l11.03125-11.035156v64.734375c0 4.710938 3.820312 8.53125 8.535156 8.53125h73.265625l42.667969 42.667969zm21.035156-59.734375v-34.132813h68.265625v34.132813zm102.398438-63.265625-19.566407-19.566406c-3.332031-3.332032-8.734375-3.332032-12.066406 0-1.601563 1.601562-2.5 3.769531-2.5 6.03125v25.601562h-68.265625v-25.601562c0-4.710938-3.824219-8.53125-8.535156-8.53125-2.261719.003906-4.433594.902344-6.03125 2.5l-19.566406 19.566406-13.535157-13.53125 34.132813-34.136719h22.296875c1.847656 0 3.644531-.597656 5.121093-1.703125 12.03125-8.960937 28.519532-8.960937 40.550782 0 1.546875 1.101563 3.398437 1.699219 5.300781 1.703125h22.066406l34.132813 34.136719zm0 0" fill="#259a4e"/><path d="m181.699219 160.382812c3.332031 3.332032 8.734375 3.332032 12.066406 0l11.035156-11.035156v64.734375c0 4.714844 3.820313 8.535157 8.53125 8.535157h85.335938c4.710937 0 8.53125-3.820313 8.53125-8.535157v-64.734375l11.035156 11.035156c3.332031 3.332032 8.734375 3.332032 12.066406 0l25.597657-25.601562c3.332031-3.332031 3.332031-8.734375 0-12.066406l-42.664063-42.664063c-1.601563-1.601562-3.769531-2.5-6.035156-2.5h-23.140625c-.519532-.351562-1.09375-.582031-1.621094-.90625 18.488281-14.609375 21.632812-41.441406 7.023438-59.929687-14.609376-18.488282-41.441407-21.632813-59.929688-7.023438s-21.632812 41.441406-7.023438 59.929688c2.058594 2.605468 4.417969 4.964844 7.023438 7.023437-.53125.324219-1.101562.554688-1.621094.902344h-23.109375c-2.261719.003906-4.433593.902344-6.035156 2.503906l-42.664063 42.664063c-3.332031 3.332031-3.332031 8.734375 0 12.066406zm40.167969 45.167969v-34.132812h68.265624v34.132812zm34.132812-187.734375c14.140625 0 25.601562 11.460938 25.601562 25.597656 0 14.140626-11.460937 25.601563-25.601562 25.601563-14.136719 0-25.597656-11.460937-25.597656-25.601563 0-14.136718 11.460937-25.597656 25.597656-25.597656zm-47.667969 76.800782h22.296875c1.847656 0 3.644532-.601563 5.121094-1.707032 12.03125-8.960937 28.519531-8.960937 40.550781 0 1.546875 1.101563 3.398438 1.699219 5.300781 1.707032h22.066407l34.132812 34.132812-13.53125 13.53125-19.570312-19.566406c-3.332031-3.332032-8.734375-3.332032-12.066407.003906-1.597656 1.597656-2.496093 3.769531-2.496093 6.03125v25.597656h-68.269531v-25.597656c0-4.714844-3.820313-8.535156-8.535157-8.53125-2.261719 0-4.429687.898438-6.03125 2.496094l-19.566406 19.566406-13.535156-13.53125zm0 0" fill="#259a4e"/></svg>
