<?xml version="1.0" encoding="UTF-8" standalone="no"?>
<!-- Generator: Adobe Illustrator 19.2.1, SVG Export Plug-In . SVG Version: 6.00 Build 0)  -->

<svg
   xmlns:dc="http://purl.org/dc/elements/1.1/"
   xmlns:cc="http://creativecommons.org/ns#"
   xmlns:rdf="http://www.w3.org/1999/02/22-rdf-syntax-ns#"
   xmlns:svg="http://www.w3.org/2000/svg"
   xmlns="http://www.w3.org/2000/svg"
   xmlns:sodipodi="http://sodipodi.sourceforge.net/DTD/sodipodi-0.dtd"
   xmlns:inkscape="http://www.inkscape.org/namespaces/inkscape"
   version="1.1"
   id="Capa_1"
   x="0px"
   y="0px"
   viewBox="0 0 475.5 480"
   style="enable-background:new 0 0 475.5 480;"
   xml:space="preserve"
   sodipodi:docname="league.svg"
   inkscape:version="0.92.3 (2405546, 2018-03-11)"><metadata
   id="metadata49"><rdf:RDF><cc:Work
       rdf:about=""><dc:format>image/svg+xml</dc:format><dc:type
         rdf:resource="http://purl.org/dc/dcmitype/StillImage" /></cc:Work></rdf:RDF></metadata><defs
   id="defs47" /><sodipodi:namedview
   pagecolor="#ffffff"
   bordercolor="#666666"
   borderopacity="1"
   objecttolerance="10"
   gridtolerance="10"
   guidetolerance="10"
   inkscape:pageopacity="0"
   inkscape:pageshadow="2"
   inkscape:window-width="1920"
   inkscape:window-height="1017"
   id="namedview45"
   showgrid="false"
   inkscape:zoom="0.49166667"
   inkscape:cx="269.98553"
   inkscape:cy="279.85209"
   inkscape:window-x="-8"
   inkscape:window-y="-8"
   inkscape:window-maximized="1"
   inkscape:current-layer="Capa_1" />
<style
   type="text/css"
   id="style2">
	.st0{display:none;}
	.st1{display:inline;}
</style>
<g
   class="st0"
   id="g8">
	<g
   class="st1"
   id="g6">
		<path
   d="M420.7,90.3l-40-40c-2.7-2.7-6.9-3.1-10-1l-44.4,29.1l-47.9-20L271,6.9C270.4,2.9,267,0,263.1,0h-64c-4,0-7.4,2.9-7.9,6.9    l-7.4,51.5l-47.9,20L91.4,49.3c-3.2-2.1-7.4-1.6-10,1l-40,40c-2.7,2.7-3.1,6.9-1,10.1l29.6,45l-5,11.5l14.7,6.4l6.7-15.4    c1.1-2.5,0.8-5.3-0.7-7.6L57.3,97l30.8-30.8l42.6,27.9c2.2,1.4,5,1.7,7.5,0.7l56-23.4c2.6-1.1,4.4-3.5,4.8-6.2l7-49.1h50.1l7,49.1    c0.4,2.8,2.2,5.2,4.8,6.2l56,23.4c2.5,1,5.2,0.8,7.5-0.7L374,66.3l31,31l-20.8,35.2c-1.2,2.1-1.5,4.6-0.6,6.9l8.9,23.4l15-5.7    l-7.5-19.8l22-37.3C423.8,96.9,423.3,92.9,420.7,90.3z"
   id="path4" />
	</g>
</g>
<g
   class="st0"
   id="g14">
	<g
   class="st1"
   id="g12">
		<path
   d="M463.7,338.3l-24-24c-1.5-1.5-3.5-2.3-5.7-2.3h-64c-2.1,0-4.2,0.8-5.7,2.3l-24,24c-1.5,1.5-2.3,3.5-2.3,5.7v128    c0,4.4,3.6,8,8,8h112c4.4,0,8-3.6,8-8V344C466.1,341.9,465.2,339.8,463.7,338.3z M450.1,464h-40V344h-16v120h-40V347.3l16-16    l18.3,18.3l5.7-5.7l5.7-5.7L389.4,328h26l-10.8,10.2l5.5,5.8l5.5,5.8l19.1-18l15.4,15.4V464z"
   id="path10" />
	</g>
</g>
<g
   class="st0"
   id="g20">
	<g
   class="st1"
   id="g18">
		<path
   d="M410.1,176h-15.7c-22,0-39.9,17.8-40,39.9l-0.1,40.1c-0.1,26.5,21.3,48,47.8,48.1c0.1,0,0.1,0,0.2,0    c26.5,0,47.9-21.5,47.9-47.9V216C450,193.9,432.1,176,410.1,176z M370.3,215.9c0-13.1,10.6-23.8,23.7-23.9    C394.1,205.2,383.5,215.9,370.3,215.9L370.3,215.9z M434.1,256.1c0,17.6-14.3,31.9-31.9,31.9c-17.6,0-31.9-14.3-31.9-31.9    c0,0,0-0.1,0-0.1l0.1-24c12.5-0.1,24.3-6,31.8-16c7.6,10.1,19.4,16,32,16L434.1,256.1L434.1,256.1z M410.1,192    c13.3,0,24,10.7,24,24C420.8,216,410.1,205.3,410.1,192z"
   id="path16" />
	</g>
</g>
<g
   class="st0"
   id="g26">
	<g
   class="st1"
   id="g24">
		<path
   d="M111.7,338.3l-24-24c-1.5-1.5-3.5-2.3-5.7-2.3h-64c-2.1,0-4.2,0.8-5.7,2.3l-24,24c-1.5,1.5-2.3,3.5-2.3,5.7v128    c0,4.4,3.6,8,8,8h112c4.4,0,8-3.6,8-8V344C114.1,341.9,113.2,339.8,111.7,338.3z M98.1,464h-40V344h-16v120h-40V347.3l16-16    l18.3,18.3l5.7-5.7l5.7-5.7L37.4,328h26l-10.8,10.2l5.5,5.8l5.5,5.8l19.1-18l15.4,15.4V464z"
   id="path22" />
	</g>
</g>
<g
   class="st0"
   id="g32">
	<g
   class="st1"
   id="g30">
		<path
   d="M58.1,176H42.3c-22,0-39.9,17.8-40,39.9l-0.1,40.1c-0.1,26.5,21.3,48,47.8,48.1c0.1,0,0.1,0,0.2,0    c26.5,0,47.9-21.5,47.9-47.9V216C98,193.9,80.1,176,58.1,176z M58.1,192c10.1,0,19.2,6.4,22.5,16H66.1c-10.1,0-19.2-6.4-22.5-16    H58.1z M26.1,198.5v1.5c0,2.1-0.8,4.2-2.4,5.7c-1,1-2.3,1.7-3.8,2C21.2,204.1,23.3,201,26.1,198.5z M82.1,256.1    c0,17.6-14.3,31.9-31.9,31.9c-17.6,0-31.9-14.3-31.9-31.9c0,0,0-0.1,0-0.1l0.1-32.1c6.3,0,12.3-2.5,16.7-7    c1.3-1.3,2.4-2.7,3.3-4.2C45.8,220,55.7,224,66.1,224h16V256.1z"
   id="path28" />
	</g>
</g>
<g
   id="g36"
   style="fill:#55a462;fill-opacity:1">
	<path
   d="M451.1,189.4h-44.5c-7.2,0-13-3.9-15.8-10.5c-2.7-6.6-1.3-13.6,3.7-18.6l31.5-31.4c4.6-4.6,7.2-10.8,7.2-17.3   c0-6.5-2.5-12.7-7.2-17.3l-40.1-40.1c-9.2-9.2-25.4-9.3-34.6,0l-31.4,31.4c-5.1,5-12,6.5-18.6,3.7c-6.6-2.7-10.5-8.6-10.5-15.8   V28.9c0-13.5-11-24.5-24.5-24.5h-56.7c-13.5,0-24.5,11-24.5,24.5v44.5c0,7.2-3.9,13-10.5,15.8c-6.6,2.8-13.6,1.3-18.6-3.7   l-31.4-31.4c-9.3-9.3-25.4-9.2-34.6,0L49.6,94.2c-4.6,4.6-7.2,10.8-7.2,17.3c0,6.5,2.5,12.7,7.2,17.3l31.5,31.4   c5,5.1,6.4,12,3.7,18.6c-2.7,6.6-8.6,10.5-15.8,10.5H24.5C11,189.4,0,200.4,0,213.9v56.7c0,13.5,11,24.5,24.5,24.5H69   c7.2,0,13,3.9,15.8,10.5c2.7,6.6,1.3,13.6-3.7,18.6l-31.5,31.4c-4.6,4.6-7.2,10.8-7.2,17.3c0,6.5,2.5,12.7,7.2,17.3l40.1,40.1   c9.3,9.3,25.4,9.3,34.6,0l31.4-31.5c5.1-5,12-6.4,18.6-3.7c6.6,2.7,10.5,8.6,10.5,15.8v44.5c0,13.5,11,24.5,24.5,24.5h56.7   c13.5,0,24.5-11,24.5-24.5V411c0-7.2,3.9-13,10.5-15.8c6.6-2.7,13.6-1.3,18.6,3.7l31.4,31.5c9.3,9.3,25.4,9.2,34.6,0l40.1-40.1   c4.6-4.6,7.2-10.8,7.2-17.3c0-6.5-2.5-12.7-7.2-17.3l-31.5-31.4c-5-5.1-6.4-12-3.7-18.6c2.7-6.6,8.6-10.5,15.8-10.5h44.5   c13.5,0,24.5-11,24.5-24.5v-56.7C475.5,200.4,464.6,189.4,451.1,189.4z M457.9,270.6c0,3.8-3.1,6.9-6.9,6.9h-44.5   c-14.3,0-26.6,8.2-32.1,21.4c-5.5,13.2-2.6,27.7,7.5,37.8l31.5,31.4c2.7,2.7,2.7,7,0,9.7L373.4,418c-2.7,2.7-7,2.7-9.7,0   l-31.4-31.5c-10.1-10.1-24.6-13-37.8-7.5c-13.2,5.5-21.4,17.8-21.4,32.1v44.5c0,3.8-3.1,6.9-6.9,6.9h-56.7c-3.8,0-6.9-3.1-6.9-6.9   V411c0-14.3-8.2-26.6-21.4-32.1c-4.4-1.8-9-2.7-13.5-2.7c-8.9,0-17.6,3.5-24.3,10.3l-31.4,31.5c-2.7,2.7-7.1,2.7-9.7,0L62,377.8   c-2.7-2.7-2.7-7,0-9.7l31.5-31.4c10.1-10.1,13-24.6,7.5-37.8c-5.5-13.2-17.8-21.4-32.1-21.4H24.5c-3.8,0-6.9-3.1-6.9-6.9v-56.7   c0-3.8,3.1-6.9,6.9-6.9H69c14.3,0,26.6-8.2,32.1-21.4c5.5-13.2,2.6-27.7-7.5-37.8L62,116.3c-2.7-2.7-2.7-7,0-9.7l40.1-40.1   c2.7-2.7,7-2.7,9.7,0L143.3,98c10.1,10.1,24.6,13,37.8,7.5c13.2-5.5,21.4-17.7,21.4-32V28.9c0-3.8,3.1-6.9,6.9-6.9h56.7   c3.8,0,6.9,3.1,6.9,6.9v44.5c0,14.3,8.2,26.6,21.4,32.1c13.2,5.5,27.7,2.6,37.8-7.5l31.4-31.4c2.7-2.7,7.1-2.7,9.7,0l40.1,40.1   c2.7,2.7,2.7,7,0,9.7L382,147.8c-10.1,10.1-13,24.6-7.5,37.8c5.5,13.2,17.8,21.4,32.1,21.4h44.5c3.8,0,6.9,3.1,6.9,6.9V270.6z"
   id="path34"
   style="fill:#55a462;fill-opacity:1" />
</g>
<g
   id="g42"
   style="fill:#55a462;fill-opacity:1">
	<g
   id="g40"
   style="fill:#55a462;fill-opacity:1">
		<path
   d="M354.5,141.9h-22.3c0.2-3.3,0.3-6.6,0.4-10c0-1.9-0.7-3.8-2-5.1c-1.3-1.4-3.2-2.1-5.1-2.1H202.3c-1.9,0-3.8,0.8-5.1,2.1    c-1.3,1.4-2.1,3.2-2,5.1c0.1,3.4,0.2,6.7,0.4,10h-22.3c-3.6,0-6.6,2.9-6.6,6.6c0,20.2,5.5,39.2,15.6,53.7c2.2,3.2,4.6,6.1,7.2,8.7    c-0.9,0-1.9-0.1-2.8-0.1c-42.1,0-76.3,34.2-76.3,76.3s34.2,76.3,76.3,76.3c12.3,0,24-2.9,34.3-8.2h90.6c3.4,0,6.1-2.7,6.1-6.1    v-7.7c0-3.4-2.7-6.1-6.1-6.1h-8v-9.5c0-2-1.6-3.7-3.7-3.7s-3.7,1.6-3.7,3.7v9.5h-50.4c0.6-0.7,1.2-1.5,1.8-2.3    c0.3-0.4,0.6-0.8,0.9-1.2h36.7c2.8,0,5.1-2.3,5.1-5.1V310c0-2.8-2.3-5.1-5.1-5.1h-24.4c0.4-1.6,0.7-3.2,1-4.8h34.3v11.4    c0,2,1.6,3.7,3.7,3.7c2,0,3.7-1.6,3.7-3.7v-12.6c0-3.4-2.7-6.1-6.1-6.1h-8v-8.1c0-3.8-3.1-6.8-6.8-6.8h-6.2v-8.1h4.7    c3.4,0,6.1-2.7,6.1-6.1v-11.8c8.5-5.8,16.3-14.7,23-26.5c13.4-1.6,25.8-9.8,35.1-23.2c10.1-14.4,15.6-33.5,15.6-53.7    C361.1,144.8,358.1,141.9,354.5,141.9z M197.9,163.8c1.8,12.2,4.5,23.7,7.9,34.4c-1.8-1.9-3.6-4.2-5.4-6.7    c-4.5-6.4-8.3-16.7-10.3-27.7H197.9z M188.4,197.9c-9.1-13-14.1-30.3-14.3-48.7h22c0.2,2.4,0.5,4.9,0.7,7.3h-8.2    c-1.8,0-3.5,0.8-4.7,2.2c-1.2,1.4-1.7,3.2-1.4,4.9c2.1,12.5,6.5,24.5,11.7,32.1c5.1,7.3,10.6,12.5,16.2,15.4    c0.6,1.4,1.2,2.7,1.8,4c-2.9-1-5.9-1.9-9-2.6C197.8,209.1,192.8,204.1,188.4,197.9z M186.8,218c6.1,0,12.1,0.8,17.7,2.3    l-17.7,12.9L169,220.3C174.7,218.8,180.6,218,186.8,218z M160.5,223.2l22.6,16.4v4.3c0,2,1.6,3.7,3.7,3.7c2,0,3.7-1.6,3.7-3.7    v-4.3l22.6-16.4c11.6,4.8,21.6,12.7,29,22.6l-8.3,25.5l-18.9,5.6l-24.4-17.7v-1c0-2-1.6-3.7-3.7-3.7c-2,0-3.7,1.6-3.7,3.7v1    l-24.6,17.9l-18.1-4.7l-8.7-26.8C139.1,235.7,149,228,160.5,223.2z M247.2,253.8c4.9,8.9,7.9,19,8.4,29.8L241,272.9L247.2,253.8z     M209.7,282.2l-8.8,27h-28.4l-8.8-27l23-16.7L209.7,282.2z M126.5,253.4l6.5,20.1L117.8,285C118.2,273.6,121.3,262.8,126.5,253.4z     M129.4,325.1c-6.2-9.2-10.2-20-11.2-31.7l19.6-14.3l19,5l9.3,28.5l-9.3,12.4H129.4z M135,332.5h20.7l6.1,18.8    C151.4,347.2,142.3,340.7,135,332.5z M203.3,353.9c-5.3,1.3-10.8,2-16.5,2c-5.6,0-11.1-0.7-16.3-2l-7.9-24.4l9.8-13h29.5l10,11.4    L203.3,353.9z M211.9,351.2l6.5-19.9h21.2C232.2,340,222.7,346.9,211.9,351.2z M310.4,342.5v5.2h-77.6c2.1-1.6,4.2-3.4,6.2-5.2    H310.4z M244.9,324H218l-10.3-11.7l9.2-28.3l19-5.6l19.6,14.2C254.6,304.1,250.8,314.8,244.9,324z M283.1,312.2v12.1h-29.8    c2.2-3.8,4-7.9,5.5-12.1H283.1z M261.1,269.6h8v8.1h-6.6C262.2,275,261.7,272.3,261.1,269.6z M282.1,285.1v7.6h-19.3    c0.1-1.9,0.2-3.8,0.2-5.8c0-0.6,0-1.2,0-1.8H282.1z M279.9,262.3L279.9,262.3h-21c-1-3-2.2-5.9-3.6-8.7h24.6L279.9,262.3    L279.9,262.3z M306.4,217c-6.9,13.6-15.1,23.5-24,29.2h-31.1c-7-11.1-16.8-20.2-28.4-26.5c-0.5-0.9-1-1.8-1.4-2.7    c-11.5-22.5-18.2-52.7-18.9-85.1h122.7c-0.3,14.1-1.7,27.8-4.3,40.8c-0.4,2,0.9,3.9,2.9,4.3c2,0.4,3.9-0.9,4.3-2.9    c0.7-3.4,1.2-6.8,1.8-10.3h7.7c-2,11-5.8,21.2-10.3,27.7c-1.8,2.5-3.6,4.8-5.4,6.7c0.8-2.5,1.6-5,2.3-7.6c0.5-2-0.6-4-2.5-4.5    c-2-0.5-4,0.6-4.5,2.5C314.3,199.1,310.7,208.6,306.4,217z M339.4,197.9c-6.8,9.8-15.5,16.4-24.8,19c0.9-1.9,1.7-3.8,2.6-5.8    c5.6-2.9,11.2-8.1,16.2-15.4c5.3-7.6,9.7-19.6,11.7-32.1c0.3-1.8-0.2-3.6-1.4-4.9c-1.2-1.4-2.9-2.2-4.7-2.2h-8.3    c0.3-2.4,0.5-4.8,0.7-7.3h22C353.6,167.6,348.5,184.9,339.4,197.9z"
   id="path38"
   style="fill:#55a462;fill-opacity:1" />
	</g>
</g>
</svg>