<?xml version="1.0" encoding="UTF-8" standalone="no"?>
<!-- Generator: Adobe Illustrator 19.0.0, SVG Export Plug-In . SVG Version: 6.00 Build 0)  -->

<svg
   xmlns:dc="http://purl.org/dc/elements/1.1/"
   xmlns:cc="http://creativecommons.org/ns#"
   xmlns:rdf="http://www.w3.org/1999/02/22-rdf-syntax-ns#"
   xmlns:svg="http://www.w3.org/2000/svg"
   xmlns="http://www.w3.org/2000/svg"
   xmlns:sodipodi="http://sodipodi.sourceforge.net/DTD/sodipodi-0.dtd"
   xmlns:inkscape="http://www.inkscape.org/namespaces/inkscape"
   version="1.1"
   id="Capa_1"
   x="0px"
   y="0px"
   viewBox="0 0 496.941 496.941"
   style="enable-background:new 0 0 496.941 496.941;"
   xml:space="preserve"
   sodipodi:docname="newspaper.svg"
   inkscape:version="0.92.3 (2405546, 2018-03-11)"><metadata
   id="metadata71"><rdf:RDF><cc:Work
       rdf:about=""><dc:format>image/svg+xml</dc:format><dc:type
         rdf:resource="http://purl.org/dc/dcmitype/StillImage" /></cc:Work></rdf:RDF></metadata><defs
   id="defs69" /><sodipodi:namedview
   pagecolor="#ffffff"
   bordercolor="#666666"
   borderopacity="1"
   objecttolerance="10"
   gridtolerance="10"
   guidetolerance="10"
   inkscape:pageopacity="0"
   inkscape:pageshadow="2"
   inkscape:window-width="1920"
   inkscape:window-height="1017"
   id="namedview67"
   showgrid="false"
   inkscape:zoom="0.47490546"
   inkscape:cx="248.4705"
   inkscape:cy="248.4705"
   inkscape:window-x="-8"
   inkscape:window-y="-8"
   inkscape:window-maximized="1"
   inkscape:current-layer="Capa_1" />
<g
   id="g34"
   style="fill:#55a462;fill-opacity:1">
	<g
   id="g32"
   style="fill:#55a462;fill-opacity:1">
		<g
   id="g30"
   style="fill:#55a462;fill-opacity:1">
			<path
   d="M461.553,141.553L329.035,2.259C327.529,0.753,325.271,0,323.765,0H64.753C47.435,0,33.882,14.306,33.882,31.624v433.694     c0,17.318,14.306,31.624,30.871,31.624h367.435c17.318,0,30.871-14.306,30.871-31.624V146.824     C463.059,145.318,462.306,143.059,461.553,141.553z M331.294,26.353l106.918,112.941H331.294V26.353z M448,465.318     c0,9.035-7.529,16.565-15.812,16.565H64.753c-9.035,0-15.812-7.529-15.812-16.565V31.624c0-9.035,6.776-16.565,15.812-16.565     h251.482v131.765c0,4.518,3.012,7.529,7.529,7.529H448V465.318z"
   id="path2"
   style="fill:#55a462;fill-opacity:1" />
			<path
   d="M82.824,76.8h42.165c4.518,0,7.529-3.012,7.529-7.529s-3.012-7.529-7.529-7.529H82.824c-4.518,0-7.529,3.012-7.529,7.529     S79.059,76.8,82.824,76.8z"
   id="path4"
   style="fill:#55a462;fill-opacity:1" />
			<path
   d="M213.835,124.988c0-4.518-3.012-7.529-7.529-7.529H82.824c-4.518,0-7.529,3.012-7.529,7.529     c0,4.518,3.012,7.529,7.529,7.529h123.482C210.824,132.518,213.835,129.506,213.835,124.988z"
   id="path6"
   style="fill:#55a462;fill-opacity:1" />
			<path
   d="M155.106,76.8h123.482c4.518,0,7.529-3.012,7.529-7.529s-3.012-7.529-7.529-7.529H155.106     c-4.518,0-7.529,3.012-7.529,7.529S150.588,76.8,155.106,76.8z"
   id="path8"
   style="fill:#55a462;fill-opacity:1" />
			<path
   d="M278.588,117.459h-42.918c-4.518,0-7.529,3.012-7.529,7.529c0,4.518,3.012,7.529,7.529,7.529h42.918     c4.518,0,7.529-3.012,7.529-7.529C286.118,120.471,283.106,117.459,278.588,117.459z"
   id="path10"
   style="fill:#55a462;fill-opacity:1" />
			<path
   d="M90.353,179.953v109.929c0,4.518,3.012,7.529,7.529,7.529h269.553c4.518,0,7.529-3.012,7.529-7.529V179.953     c0-4.518-3.012-7.529-7.529-7.529H97.882C94.118,172.424,90.353,176.188,90.353,179.953z M105.412,187.482h254.494v94.871     H105.412V187.482z"
   id="path12"
   style="fill:#55a462;fill-opacity:1" />
			<path
   d="M216.847,327.529H97.129c-4.518,0-7.529,3.012-7.529,7.529v112.188c0,4.518,3.012,7.529,7.529,7.529h119.718     c4.518,0,7.529-3.012,7.529-7.529V335.059C224.376,331.294,221.365,327.529,216.847,327.529z M209.318,439.718H104.659v-97.129     h104.659V439.718z"
   id="path14"
   style="fill:#55a462;fill-opacity:1" />
			<path
   d="M249.976,342.588c0,4.518,3.012,7.529,7.529,7.529H409.6c4.518,0,7.529-3.012,7.529-7.529     c0-4.518-3.012-7.529-7.529-7.529H257.506C252.988,335.059,249.976,338.824,249.976,342.588z"
   id="path16"
   style="fill:#55a462;fill-opacity:1" />
			<path
   d="M408.847,384H257.506c-4.518,0-7.529,3.012-7.529,7.529s3.012,7.529,7.529,7.529H409.6c4.518,0,7.529-3.012,7.529-7.529     S413.365,384,408.847,384z"
   id="path18"
   style="fill:#55a462;fill-opacity:1" />
			<path
   d="M408.847,432.188H257.506c-4.518,0-7.529,3.012-7.529,7.529s3.012,7.529,7.529,7.529H409.6     c4.518,0,7.529-3.012,7.529-7.529S413.365,432.188,408.847,432.188z"
   id="path20"
   style="fill:#55a462;fill-opacity:1" />
			<polygon
   points="162.635,242.447 138.541,210.824 128,210.824 128,259.765 139.294,259.765 139.294,228.894 162.635,259.765      173.176,259.765 173.176,210.824 162.635,210.824    "
   id="polygon22"
   style="fill:#55a462;fill-opacity:1" />
			<polygon
   points="196.518,240.188 218.353,240.188 218.353,230.4 196.518,230.4 196.518,220.612 220.612,220.612 220.612,210.824      185.224,210.824 185.224,259.765 221.365,259.765 221.365,249.976 196.518,249.976    "
   id="polygon24"
   style="fill:#55a462;fill-opacity:1" />
			<polygon
   points="274.824,238.682 266.541,210.824 255.247,210.824 246.212,238.682 236.424,210.824 225.129,210.824      241.694,259.765 249.976,259.765 260.518,225.882 271.812,259.765 279.341,259.765 296.659,210.824 284.612,210.824    "
   id="polygon26"
   style="fill:#55a462;fill-opacity:1" />
			<path
   d="M323.012,230.4c-4.518-1.506-7.529-2.259-9.035-3.012c-1.506-0.753-2.259-2.259-2.259-3.765     c0-1.506,0.753-2.259,1.506-3.765c0.753-1.506,2.259-1.506,4.518-1.506c4.518,0,9.035,1.506,12.8,4.518l5.271-8.282     c-2.259-2.259-5.271-3.765-8.282-4.518c-3.012-0.753-6.776-1.506-9.788-1.506c-5.271,0-9.035,1.506-12.8,3.765     c-3.012,2.259-5.271,6.023-5.271,10.541c0,4.518,1.506,8.282,3.765,10.541c3.012,2.259,6.776,3.765,12.8,5.271     c3.765,0.753,6.024,1.506,7.529,2.259c1.506,0.753,1.506,2.259,1.506,3.765c0,1.506-0.753,2.259-1.506,3.765     c-1.506,0.753-3.012,1.506-4.518,1.506c-4.518,0-9.035-2.259-14.306-6.776l-6.776,8.282c6.023,6.023,13.553,8.282,21.082,8.282     c5.271,0,9.788-1.506,12.8-3.765c3.012-3.012,5.271-6.023,5.271-10.541c0-4.518-1.506-7.529-3.765-9.788     C331.294,233.412,327.529,231.906,323.012,230.4z"
   id="path28"
   style="fill:#55a462;fill-opacity:1" />
		</g>
	</g>
</g>
<g
   id="g36">
</g>
<g
   id="g38">
</g>
<g
   id="g40">
</g>
<g
   id="g42">
</g>
<g
   id="g44">
</g>
<g
   id="g46">
</g>
<g
   id="g48">
</g>
<g
   id="g50">
</g>
<g
   id="g52">
</g>
<g
   id="g54">
</g>
<g
   id="g56">
</g>
<g
   id="g58">
</g>
<g
   id="g60">
</g>
<g
   id="g62">
</g>
<g
   id="g64">
</g>
</svg>